<mxfile host="app.diagrams.net" modified="2020-05-21T02:45:03.508Z" agent="5.0 (X11)" etag="ylvELpc3P0ICLfZ-PL3v" version="13.1.3" type="github">
  <diagram id="IUp9S2dOjbodWJapuMMP" name="第 1 页">
    <mxGraphModel dx="942" dy="586" grid="1" gridSize="10" guides="1" tooltips="1" connect="1" arrows="1" fold="1" page="1" pageScale="1" pageWidth="827" pageHeight="1169" math="0" shadow="0">
      <root>
        <mxCell id="0" />
        <mxCell id="1" parent="0" />
        <mxCell id="ZED8bmV4NUyNlAEiTFaw-1" value="" style="rounded=1;whiteSpace=wrap;html=1;" vertex="1" parent="1">
          <mxGeometry x="294" y="110" width="120" height="60" as="geometry" />
        </mxCell>
      </root>
    </mxGraphModel>
  </diagram>
</mxfile>
